<!DOCTYPE svg PUBLIC "-//W3C//DTD SVG 20010904//EN" "http://www.w3.org/TR/2001/REC-SVG-20010904/DTD/svg10.dtd">
<svg version="1.0" xmlns="http://www.w3.org/2000/svg" width="512px" height="512px" viewBox="0 0 5120 5120" preserveAspectRatio="xMidYMid meet">
<g id="layer101" fill="#121212" stroke="none">
 <path d="M2404 4819 c-16 -4 -60 -7 -99 -8 -38 -1 -126 -7 -195 -15 -69 -7 -132 -14 -140 -14 -29 -2 -266 -50 -347 -71 -329 -85 -636 -245 -831 -431 -71 -69 -152 -157 -174 -191 -9 -15 -24 -34 -33 -43 -9 -9 -14 -16 -11 -16 3 0 -11 -26 -31 -57 -39 -60 -123 -239 -123 -260 0 -7 -4 -13 -9 -13 -5 0 -8 -6 -7 -12 1 -11 -37 -156 -51 -198 -3 -8 -7 -31 -10 -50 -2 -19 -6 -42 -10 -50 -3 -8 -5 -28 -4 -43 2 -15 -2 -33 -7 -40 -6 -7 -9 -119 -7 -287 2 -310 18 -443 81 -688 19 -75 37 -144 39 -153 9 -42 112 -303 155 -394 l48 -103 -52 -28 c-110 -60 -251 -233 -292 -359 -9 -27 -20 -52 -23 -55 -8 -7 -10 -32 -17 -171 -7 -136 13 -235 71 -353 209 -424 784 -527 1130 -204 40 38 90 93 110 123 l36 55 57 -29 c151 -75 368 -143 567 -178 141 -24 529 -24 670 0 199 35 416 103 567 178 l57 29 36 -55 c84 -126 237 -237 390 -285 330 -101 707 65 856 376 53 111 72 211 67 343 -6 135 -34 236 -95 341 -45 76 -169 203 -239 245 l-51 29 45 96 c177 378 266 750 279 1160 9 293 -17 496 -91 726 -136 421 -445 746 -891 935 -44 19 -82 37 -83 42 -2 4 -7 5 -12 2 -4 -2 -41 7 -81 21 -116 39 -435 115 -489 115 -8 1 -52 5 -97 10 -205 23 -602 40 -659 28z"/>
 </g>
<g id="layer102" fill="#332618" stroke="none">
 <path d="M2404 4819 c-16 -4 -60 -7 -99 -8 -38 -1 -126 -7 -195 -15 -69 -7 -132 -14 -140 -14 -29 -2 -266 -50 -347 -71 -329 -85 -636 -245 -831 -431 -71 -69 -152 -157 -174 -191 -9 -15 -24 -34 -33 -43 -9 -9 -14 -16 -11 -16 3 0 -11 -26 -31 -57 -39 -60 -123 -239 -123 -260 0 -7 -4 -13 -9 -13 -5 0 -8 -6 -7 -12 1 -11 -37 -156 -51 -198 -3 -8 -7 -31 -10 -50 -2 -19 -6 -42 -10 -50 -3 -8 -5 -28 -4 -43 2 -15 -2 -33 -7 -40 -6 -7 -9 -119 -7 -287 2 -310 18 -443 81 -688 19 -75 37 -144 39 -153 9 -42 112 -303 155 -394 l48 -103 -52 -28 c-110 -60 -251 -233 -292 -359 -9 -27 -20 -52 -23 -55 -8 -7 -10 -32 -17 -171 -7 -136 13 -235 71 -353 209 -424 784 -527 1130 -204 40 38 90 93 110 123 l36 55 57 -29 c151 -75 368 -143 567 -178 141 -24 529 -24 670 0 199 35 416 103 567 178 l57 29 36 -55 c84 -126 237 -237 390 -285 330 -101 707 65 856 376 53 111 72 211 67 343 -6 135 -34 236 -95 341 -45 76 -169 203 -239 245 l-51 29 45 96 c177 378 266 750 279 1160 9 293 -17 496 -91 726 -136 421 -445 746 -891 935 -44 19 -82 37 -83 42 -2 4 -7 5 -12 2 -4 -2 -41 7 -81 21 -116 39 -435 115 -489 115 -8 1 -52 5 -97 10 -205 23 -602 40 -659 28z m289 -1544 c74 -15 173 -63 208 -101 l22 -24 -363 0 -363 0 22 24 c34 36 134 86 204 101 82 18 186 18 270 0z"/>
 </g>
<g id="layer103" fill="#3f3e3e" stroke="none">
 <path d="M2404 4819 c-16 -4 -60 -7 -99 -8 -38 -1 -126 -7 -195 -15 -69 -7 -132 -14 -140 -14 -29 -2 -266 -50 -347 -71 -329 -85 -636 -245 -831 -431 -71 -69 -152 -157 -174 -191 -9 -15 -24 -34 -33 -43 -9 -9 -14 -16 -11 -16 3 0 -11 -26 -31 -57 -39 -60 -123 -239 -123 -260 0 -7 -4 -13 -9 -13 -5 0 -8 -6 -7 -12 1 -11 -37 -156 -51 -198 -3 -8 -7 -31 -10 -50 -2 -19 -6 -42 -10 -50 -3 -8 -5 -28 -4 -43 2 -15 -2 -33 -7 -40 -6 -7 -9 -119 -7 -287 2 -310 18 -443 81 -688 19 -75 37 -144 39 -153 9 -42 112 -303 155 -394 l48 -103 -52 -28 c-110 -60 -251 -233 -292 -359 -9 -27 -20 -52 -23 -55 -8 -7 -10 -32 -17 -171 -7 -136 13 -235 71 -353 209 -424 784 -527 1130 -204 40 38 90 93 110 123 l36 55 57 -29 c151 -75 368 -143 567 -178 141 -24 529 -24 670 0 199 35 416 103 567 178 l57 29 36 -55 c84 -126 237 -237 390 -285 330 -101 707 65 856 376 53 111 72 211 67 343 -6 135 -34 236 -95 341 -45 76 -169 203 -239 245 l-51 29 45 96 c177 378 266 750 279 1160 9 293 -17 496 -91 726 -136 421 -445 746 -891 935 -44 19 -82 37 -83 42 -2 4 -7 5 -12 2 -4 -2 -41 7 -81 21 -116 39 -435 115 -489 115 -8 1 -52 5 -97 10 -205 23 -602 40 -659 28z m301 -1544 c91 -24 140 -49 196 -101 56 -54 83 -88 93 -121 l7 -23 -440 0 c-364 0 -441 2 -441 13 0 40 117 159 190 195 108 51 277 67 395 37z"/>
 </g>
<g id="layer104" fill="#855c3d" stroke="none">
 <path d="M2404 4819 c-16 -4 -60 -7 -99 -8 -38 -1 -126 -7 -195 -15 -69 -7 -132 -14 -140 -14 -29 -2 -266 -50 -347 -71 -329 -85 -636 -245 -831 -431 -71 -69 -152 -157 -174 -191 -9 -15 -24 -34 -33 -43 -9 -9 -14 -16 -11 -16 3 0 -11 -26 -31 -57 -39 -60 -123 -239 -123 -260 0 -7 -4 -13 -9 -13 -5 0 -8 -6 -7 -12 1 -11 -37 -156 -51 -198 -3 -8 -7 -31 -10 -50 -2 -19 -6 -42 -10 -50 -3 -8 -5 -28 -4 -43 2 -15 -2 -33 -7 -40 -6 -7 -9 -119 -7 -287 2 -310 18 -443 81 -688 19 -75 37 -144 39 -153 9 -42 112 -303 155 -394 l48 -103 -52 -28 c-110 -60 -251 -233 -292 -359 -9 -27 -20 -52 -23 -55 -8 -7 -10 -32 -17 -171 -7 -136 13 -235 71 -353 209 -424 784 -527 1130 -204 40 38 90 93 110 123 l36 55 57 -29 c151 -75 368 -143 567 -178 141 -24 529 -24 670 0 199 35 416 103 567 178 l57 29 36 -55 c84 -126 237 -237 390 -285 330 -101 707 65 856 376 53 111 72 211 67 343 -6 135 -34 236 -95 341 -45 76 -169 203 -239 245 l-51 29 45 96 c177 378 266 750 279 1160 9 293 -17 496 -91 726 -136 421 -445 746 -891 935 -44 19 -82 37 -83 42 -2 4 -7 5 -12 2 -4 -2 -41 7 -81 21 -116 39 -435 115 -489 115 -8 1 -52 5 -97 10 -205 23 -602 40 -659 28z m286 -980 c93 -15 202 -54 284 -101 81 -47 222 -183 249 -241 34 -70 -1 -132 -74 -132 -34 0 -46 8 -96 57 -78 75 -167 131 -266 165 -76 26 -93 28 -232 27 -144 0 -154 -1 -234 -32 -100 -38 -189 -94 -251 -157 -56 -58 -82 -69 -127 -54 -40 13 -68 59 -58 97 10 39 56 101 126 168 174 165 433 243 679 203z m2 -560 c173 -36 330 -187 315 -301 -9 -68 -61 -122 -133 -138 -51 -12 -577 -12 -628 0 -74 17 -125 72 -133 143 -5 38 -1 54 22 93 56 95 163 172 278 200 66 16 210 17 279 3z m-1227 -410 c108 -40 205 -160 235 -288 42 -181 -48 -389 -205 -469 -72 -37 -179 -42 -257 -12 -121 45 -216 170 -240 314 -33 201 80 407 255 462 64 19 148 17 212 -7z m2448 -12 c244 -120 289 -496 82 -686 -76 -69 -146 -94 -245 -89 -133 8 -232 80 -299 218 -35 72 -36 79 -36 186 0 107 1 112 38 186 44 91 121 166 200 197 74 30 184 25 260 -12z"/>
 </g>
<g id="layer105" fill="#a4784e" stroke="none">
 <path d="M2108 4300 c-184 -32 -341 -121 -453 -257 -62 -76 -126 -193 -146 -271 l-13 -52 -470 -2 -471 -3 -22 -55 c-27 -68 -57 -185 -80 -310 -25 -132 -25 -536 0 -697 68 -459 245 -897 497 -1235 414 -555 959 -838 1612 -838 537 0 1010 198 1391 584 376 380 622 892 714 1486 25 162 25 564 0 700 -23 122 -60 262 -86 323 l-20 47 -469 0 -468 0 -13 51 c-8 29 -31 86 -52 128 -92 185 -256 321 -461 383 -70 21 -91 22 -508 24 -239 1 -456 -1 -482 -6z m620 -466 c196 -40 375 -155 477 -307 43 -64 45 -99 6 -138 -48 -48 -78 -41 -168 42 -279 254 -688 253 -967 -1 -74 -68 -81 -72 -115 -66 -43 6 -81 46 -81 85 0 59 112 190 227 268 77 51 187 97 278 116 93 20 248 21 343 1z m-15 -559 c32 -8 81 -27 109 -41 61 -31 147 -114 171 -166 35 -75 10 -166 -60 -209 -38 -24 -39 -24 -373 -24 -334 0 -335 0 -373 24 -44 27 -77 85 -77 137 0 107 135 236 293 279 70 19 238 19 310 0z m-1253 -401 c67 -22 136 -77 181 -147 56 -87 72 -149 67 -266 -3 -82 -8 -106 -35 -163 -35 -75 -108 -155 -169 -186 -152 -78 -337 -26 -438 121 -132 192 -86 479 96 600 97 64 186 76 298 41z m2410 4 c55 -16 137 -76 176 -130 108 -147 112 -364 8 -515 -38 -55 -108 -114 -160 -133 -90 -35 -196 -30 -278 12 -61 31 -134 111 -169 186 -30 64 -32 73 -32 187 0 117 1 122 34 190 86 175 247 253 421 203z"/>
 <path d="M622 1530 c-117 -82 -202 -207 -238 -350 -22 -88 -15 -251 16 -337 83 -236 318 -402 571 -403 83 0 202 30 282 72 64 33 197 158 229 214 l17 30 -95 63 c-52 35 -96 62 -98 60 -1 -2 -12 -20 -24 -39 -31 -52 -90 -105 -152 -137 -50 -25 -65 -28 -160 -28 -95 0 -111 3 -162 28 -109 54 -183 149 -208 270 -31 153 52 325 192 398 l38 19 -61 93 c-33 50 -64 93 -68 95 -4 1 -40 -20 -79 -48z"/>
 <path d="M4353 1486 l-62 -95 53 -29 c65 -37 110 -88 146 -164 88 -185 10 -403 -178 -495 -51 -25 -67 -28 -162 -28 -95 0 -110 3 -160 28 -63 32 -143 107 -161 149 -6 15 -13 28 -16 28 -2 0 -47 -28 -98 -62 l-94 -62 17 -31 c9 -16 51 -64 92 -106 271 -274 718 -226 929 101 67 103 86 175 86 320 0 105 -4 136 -24 193 -29 87 -107 204 -169 255 -49 41 -123 92 -132 92 -3 0 -33 -42 -67 -94z"/>
 </g>
<g id="layer106" fill="#e6a965" stroke="none">
 <path d="M2064 4285 c-252 -55 -461 -245 -541 -490 -35 -107 -43 -279 -19 -388 33 -149 132 -310 248 -406 115 -95 259 -153 410 -166 l73 -6 -33 17 c-90 47 -120 144 -72 234 23 43 102 120 154 149 149 85 383 89 540 9 48 -24 129 -99 157 -145 59 -94 32 -198 -63 -247 l-33 -17 73 6 c201 17 381 111 508 265 61 75 129 213 149 305 26 114 17 283 -19 390 -76 224 -244 392 -471 472 l-80 28 -460 2 c-357 2 -474 -1 -521 -12z m583 -436 c225 -25 421 -132 547 -300 37 -48 46 -69 46 -100 0 -55 -34 -89 -88 -89 -35 0 -49 8 -120 73 -142 128 -279 181 -472 181 -193 0 -330 -53 -472 -181 -92 -84 -124 -92 -177 -47 -47 39 -43 85 12 160 122 165 330 281 542 303 44 5 81 9 83 10 1 0 46 -4 99 -10z"/>
 </g>

</svg>